<?xml version="1.0" encoding="UTF-8" standalone="no"?>
<!DOCTYPE svg PUBLIC "-//W3C//DTD SVG 1.1//EN" "http://www.w3.org/Graphics/SVG/1.1/DTD/svg11.dtd">
<svg width="100%" height="100%" viewBox="0 0 2918 1393" version="1.1" xmlns="http://www.w3.org/2000/svg" xmlns:xlink="http://www.w3.org/1999/xlink" xml:space="preserve" xmlns:serif="http://www.serif.com/" style="fill-rule:evenodd;clip-rule:evenodd;">
    <g>
        <path d="M1865.46,100.913L1826.82,139.761L1781.44,170.451L1738.44,189.385L1692.91,200.958L1646.09,204.851" style="fill:none;fill-rule:nonzero;stroke:rgb(255,128,0);stroke-width:0.99px;"/>
        <path d="M1865.46,100.913L1893.3,74.964L1927.04,57.358L1975.14,48.945" style="fill:none;fill-rule:nonzero;stroke:rgb(255,128,0);stroke-width:0.99px;"/>
        <path d="M2201.91,48.945L1975.14,48.945" style="fill:none;fill-rule:nonzero;stroke:rgb(255,128,0);stroke-width:0.99px;"/>
        <path d="M2356.83,474.143L2356.8,372.03L2349.87,283.907L2341.6,231.345L2330.47,184.725L2316.59,144.777L2297.03,106.848L2273.84,78.271L2245.18,58.351L2201.91,48.945" style="fill:none;fill-rule:nonzero;stroke:rgb(255,128,0);stroke-width:0.99px;"/>
        <path d="M2356.83,899.342L2356.83,474.143" style="fill:none;fill-rule:nonzero;stroke:rgb(255,128,0);stroke-width:0.99px;"/>
        <path d="M2356.83,899.342L2357.56,974.755L2353.98,1049L2347.04,1110.38L2335.52,1169.81L2319.31,1221.96L2297.03,1266.64L2275.82,1293.29L2249.01,1313.23L2201.91,1324.54" style="fill:none;fill-rule:nonzero;stroke:rgb(255,128,0);stroke-width:0.99px;"/>
        <path d="M2201.91,1324.54L1975.14,1324.54" style="fill:none;fill-rule:nonzero;stroke:rgb(255,128,0);stroke-width:0.99px;"/>
        <path d="M1975.14,1324.54L1927.04,1316.13L1893.3,1298.52L1865.46,1272.57" style="fill:none;fill-rule:nonzero;stroke:rgb(255,128,0);stroke-width:0.99px;"/>
        <path d="M1646.09,1168.63L1692.91,1172.53L1738.44,1184.1L1781.44,1203.04L1820.72,1228.81L1865.46,1272.57" style="fill:none;fill-rule:nonzero;stroke:rgb(255,128,0);stroke-width:0.99px;"/>
        <path d="M1225.04,1168.63L1646.09,1168.63" style="fill:none;fill-rule:nonzero;stroke:rgb(255,128,0);stroke-width:0.99px;"/>
        <path d="M1005.67,1272.57L1044.31,1233.73L1082.86,1206.87L1132.69,1184.1L1178.22,1172.53L1225.04,1168.63" style="fill:none;fill-rule:nonzero;stroke:rgb(255,128,0);stroke-width:0.99px;"/>
        <path d="M895.986,1324.54L944.093,1316.13L977.831,1298.52L1005.67,1272.57" style="fill:none;fill-rule:nonzero;stroke:rgb(255,128,0);stroke-width:0.99px;"/>
        <path d="M669.214,1324.54L895.986,1324.54" style="fill:none;fill-rule:nonzero;stroke:rgb(255,128,0);stroke-width:0.99px;"/>
        <path d="M514.301,899.342L515.027,1016.76L522.153,1096.6L531.414,1151.44L544.623,1201.7L560.557,1242.18L580.691,1276.23L604.814,1301.82L637.96,1319.85L669.214,1324.54" style="fill:none;fill-rule:nonzero;stroke:rgb(255,128,0);stroke-width:0.99px;"/>
        <path d="M514.301,899.342L514.301,474.143" style="fill:none;fill-rule:nonzero;stroke:rgb(255,128,0);stroke-width:0.99px;"/>
        <path d="M514.301,474.143L514.332,372.03L519.681,297.584L531.414,222.046L546.735,165.44L567.354,118.131L587.741,88.372L611.144,66.919L637.96,53.641L669.214,48.945" style="fill:none;fill-rule:nonzero;stroke:rgb(255,128,0);stroke-width:0.99px;"/>
        <path d="M895.986,48.945L669.214,48.945" style="fill:none;fill-rule:nonzero;stroke:rgb(255,128,0);stroke-width:0.99px;"/>
        <path d="M1005.67,100.913L986.485,81.598L968.695,69.015L928.417,52.705L895.986,48.945" style="fill:none;fill-rule:nonzero;stroke:rgb(255,128,0);stroke-width:0.99px;"/>
        <path d="M1225.04,204.851L1170.51,199.556L1118.01,183.87L1076.13,162.588L1038.34,134.68L1005.67,100.913" style="fill:none;fill-rule:nonzero;stroke:rgb(255,128,0);stroke-width:0.99px;"/>
        <path d="M1225.04,204.851L1646.09,204.851" style="fill:none;fill-rule:nonzero;stroke:rgb(255,128,0);stroke-width:0.99px;"/>
    </g>
</svg>
